:SAMPLES-PER-SECOND 30
:FULLY-SPECIFIED
:DEGREES
37
root  1.91435 38.9959 -2.43298 -178.693 -67.4223 175.48
RightUpLeg  -21.2299 -17.6852 -5.67131
RightLeg  10.0388 -10.7766 1.42164
RightFoot  4.82378 -0.186322 1.54784
RightToes  0.000482159 0.542163 -0.142577
Spine  14.2288 -4.10081 -6.3555
Spine1  9.43571 -7.39275 7.46731
HEad  4.03271 13.3912 -9.4219
LeftShoulder1  6.05021 -9.6316 -39.8067
LeftArm  21.6939 -12.9293 -46.6539
LeftForeArm  34.3413 -34.8367 -5.79764
LeftHand  -0.25398 0.0180481 5.50724
RightShoulder  4.12256 7.85562 30.3341
RightArm  -0.773475 -29.1793 45.5113
RightForeArm  28.4287 15.7842 5.39738
RightHand  -0.000409923 -3.01445 1.13892
LeftUpLeg  16.6146 9.7162 6.71689
LeftLeg  10.8719 24.0627 -1.1632
LeftFoot  -17.0601 -0.466741 -11.3365
LeftToes  1.06248e-005 4.65854e-005 -8.185e-006
38
root  0.973838 38.8933 -3.24808 177.829 -67.0279 179.718
RightUpLeg  -22.6655 -21.7261 -1.66074
RightLeg  13.5834 -6.28964 0.382348
RightFoot  6.60446 0.0516179 -0.0529708
RightToes  0.000482159 0.542163 -0.142577
Spine  14.4872 -4.5283 -3.90933
Spine1  9.42475 -7.66716 7.88123
HEad  4.19763 13.8801 -10.0882
LeftShoulder1  6.0337 -9.79596 -39.15
LeftArm  21.704 -13.0882 -47.1927
LeftForeArm  36.3075 -37.5718 -6.40316
LeftHand  -0.25398 0.0180481 5.50724
RightShoulder  4.10699 7.86608 30.1614
RightArm  -3.06577 -26.9999 43.8243
RightForeArm  25.9241 15.1953 5.40974
RightHand  -0.0547586 -2.63862 -1.52616
LeftUpLeg  17.9809 11.7785 10.1174
LeftLeg  11.5451 21.1428 -0.402459
LeftFoot  -16.7386 -0.581106 -14.3996
LeftToes  1.06248e-005 4.65854e-005 -8.185e-006
39
root  0.0123423 38.816 -4.13325 174.528 -65.9535 -176.604
RightUpLeg  -23.5432 -24.6582 1.99368
RightLeg  17.1681 -1.69483 -0.330761
RightFoot  5.85084 0.245917 -1.37524
RightToes  0.000482159 0.542163 -0.142577
Spine  15.1001 -4.6982 -1.5261
Spine1  9.45632 -7.60733 8.20271
HEad  4.59651 14.5626 -10.9045
LeftShoulder1  6.00421 -9.90907 -38.5761
LeftArm  21.0566 -12.4531 -47.0741
LeftForeArm  37.2223 -39.5411 -6.89729
LeftHand  -0.25398 0.0180481 5.50724
RightShoulder  4.18285 8.06777 30.1871
RightArm  -3.5353 -24.3417 41.8028
RightForeArm  21.761 15.3317 5.41603
RightHand  -0.123051 -2.41481 -4.17645
LeftUpLeg  19.2768 16.0288 14.2221
LeftLeg  13.6913 15.9898 1.42209
LeftFoot  -15.3123 -0.579298 -19.5844
LeftToes  1.06248e-005 4.65854e-005 -8.185e-006
40
root  -0.911287 38.8157 -5.05862 172.582 -64.7177 -174.466
RightUpLeg  -23.1486 -24.7466 3.65314
RightLeg  20.0997 -0.370586 -0.429362
RightFoot  3.29999 0.351965 -2.56466
RightToes  0.000482159 0.542163 -0.142577
Spine  15.7349 -4.72425 0.252661
Spine1  9.66626 -7.38998 8.37383
HEad  5.17876 15.2543 -11.4319
LeftShoulder1  5.94211 -9.91098 -38.1269
LeftArm  19.8917 -11.3644 -46.3556
LeftForeArm  37.0558 -40.3492 -7.14229
LeftHand  -0.25398 0.0180481 5.50724
RightShoulder  4.31767 8.39478 30.3299
RightArm  -3.02623 -21.3771 40.0069
RightForeArm  17.7507 16.2916 5.2734
RightHand  -0.199133 -1.87326 -6.19573
LeftUpLeg  18.4353 19.3505 16.9329
LeftLeg  19.2523 13.486 5.51027
LeftFoot  -11.292 0.0601661 -21.7138
LeftToes  1.06248e-005 4.65854e-005 -8.185e-006
41
root  -1.76202 38.8694 -5.96423 171.418 -63.7996 -172.968
RightUpLeg  -22.2355 -24.2711 4.61027
RightLeg  22.0882 -0.441744 -0.419219
RightFoot  0.537936 0.349561 -3.31184
RightToes  0.000482159 0.542163 -0.142577
Spine  16.1794 -4.78814 1.99589
Spine1  9.89934 -7.03879 8.12718
HEad  5.88306 15.5794 -11.4936
LeftShoulder1  5.86896 -9.86596 -37.7448
LeftArm  18.1922 -10.0978 -45.356
LeftForeArm  36.2405 -39.8931 -7.06017
LeftHand  -0.25398 0.0180481 5.50724
RightShoulder  4.3981 8.6342 30.2761
RightArm  -2.63717 -18.5055 39.0275
RightForeArm  14.223 18.2046 4.85637
RightHand  -0.2876 -1.15431 -7.71191
LeftUpLeg  13.7251 15.9245 16.3907
LeftLeg  29.2802 17.4133 10.6468
LeftFoot  -4.81331 0.938563 -16.596
LeftToes  1.06248e-005 4.65854e-005 -8.185e-006
42
root  -2.55136 38.9053 -6.79777 170.234 -63.1021 -171.365
RightUpLeg  -21.2971 -23.8277 5.57395
RightLeg  23.5961 -0.552434 -0.493145
RightFoot  -1.78758 0.282222 -3.51279
RightToes  0.000482159 0.542163 -0.142577
Spine  16.5227 -4.83755 4.13369
Spine1  10.1687 -6.46839 7.5338
HEad  6.58151 15.4334 -11.3311
LeftShoulder1  5.85849 -9.89023 -37.593
LeftArm  15.6431 -8.70648 -44.1854
LeftForeArm  35.313 -38.6631 -6.76419
LeftHand  -0.25398 0.0180481 5.50724
RightShoulder  4.37087 8.66958 29.9411
RightArm  -2.91225 -15.8195 38.6288
RightForeArm  10.3747 21.0476 4.48816
RightHand  -0.378406 -0.64684 -9.19244
LeftUpLeg  7.55013 13.634 16.0077
LeftLeg  39.8957 15.5866 13.7697
LeftFoot  0.845254 0.886486 -8.12569
LeftToes  1.06248e-005 4.65854e-005 -8.185e-006
43
root  -3.33788 38.9527 -7.58647 169.424 -62.4789 -170.37
RightUpLeg  -19.9386 -23.1741 6.04583
RightLeg  24.7095 -0.61786 -0.553176
RightFoot  -3.93356 0.195173 -3.4217
RightToes  0.000482159 0.542163 -0.142577
Spine  16.7168 -4.71057 5.9053
Spine1  10.7374 -5.78847 6.94951
HEad  7.15298 15.085 -11.2474
LeftShoulder1  5.92579 -9.95647 -37.8673
LeftArm  12.2383 -7.19325 -42.7876
LeftForeArm  34.3676 -37.1539 -6.40399
LeftHand  -0.25398 0.0180481 5.50724
RightShoulder  4.30696 8.59629 29.6253
RightArm  -4.36733 -12.9823 38.0778
RightForeArm  6.77736 24.3364 4.80823
RightHand  -0.49103 -0.187044 -10.9419
LeftUpLeg  1.50617 12.3305 15.3365
LeftLeg  48.1245 9.97709 12.0782
LeftFoot  2.29738 0.457743 -3.86813
LeftToes  1.06248e-005 4.65854e-005 -8.185e-006
44
root  -4.16676 39.0992 -8.38364 169.531 -62.0968 -170.547
RightUpLeg  -17.7902 -22.8411 5.73962
RightLeg  24.8403 -0.575688 -0.442012
RightFoot  -5.94616 0.110185 -3.18528
RightToes  0.000482159 0.542163 -0.142577
Spine  16.5801 -4.42522 6.73997
Spine1  11.627 -5.21082 6.49752
HEad  7.5926 14.7619 -11.2836
LeftShoulder1  5.99692 -9.94833 -38.4003
LeftArm  8.682 -5.59887 -41.28
LeftForeArm  32.9254 -35.3504 -6.01153
LeftHand  -0.25398 0.0180481 5.50724
RightShoulder  4.28674 8.53395 29.6419
RightArm  -6.58699 -9.85016 37.1443
RightForeArm  4.26841 27.491 5.70275
RightHand  -0.675969 0.667165 -13.0192
LeftUpLeg  -4.05263 11.4282 13.8488
LeftLeg  53.5927 5.83949 8.97268
LeftFoot  1.02985 0.465305 -4.37477
LeftToes  1.06248e-005 4.65854e-005 -8.185e-006
45
root  -5.02939 39.3111 -9.18787 170.23 -62.0313 -171.297
RightUpLeg  -15.1442 -22.2591 4.76913
RightLeg  24.1 -1.20806 -0.0460143
RightFoot  -7.59255 0.0398411 -2.78645
RightToes  0.000482159 0.542163 -0.142577
Spine  16.166 -4.0933 7.21125
Spine1  12.4194 -4.67658 5.94871
HEad  7.96615 14.4061 -11.3326
LeftShoulder1  6.02975 -9.88351 -38.8399
LeftArm  5.76623 -3.89154 -39.8367
LeftForeArm  30.6568 -33.1404 -5.58233
LeftHand  -0.25398 0.0180481 5.50724
RightShoulder  4.29621 8.45375 29.9659
RightArm  -8.60002 -6.79985 36.1548
RightForeArm  2.68153 30.273 6.46192
RightHand  -0.953903 1.90472 -15.317
LeftUpLeg  -9.3025 10.9598 11.7772
LeftLeg  56.0715 4.94938 8.38966
LeftFoot  -0.210712 0.551382 -5.63205
LeftToes  1.06248e-005 4.65854e-005 -8.185e-006
46
root  -5.91438 39.5401 -9.99801 171.278 -61.9889 -172.357
RightUpLeg  -12.2294 -20.4406 3.37675
RightLeg  22.8143 -2.99639 0.540174
RightFoot  -8.77275 -0.00575393 -2.40236
RightToes  0.000482159 0.542163 -0.142577
Spine  15.7315 -3.60031 7.62737
Spine1  12.7877 -3.92851 5.08431
HEad  8.31417 13.9072 -11.3486
LeftShoulder1  6.06939 -9.8846 -39.1184
LeftArm  3.66062 -1.99254 -38.3667
LeftForeArm  27.9812 -30.8333 -5.17448
LeftHand  -0.25398 0.0180481 5.50724
RightShoulder  4.28285 8.29887 30.3296
RightArm  -10.3204 -4.1973 35.3292
RightForeArm  1.84934 32.5545 7.09457
RightHand  -1.29241 3.21346 -17.6099
LeftUpLeg  -13.9184 11.2081 9.30555
LeftLeg  55.4091 5.8713 9.54766
LeftFoot  -1.26516 0.44934 -4.9884
LeftToes  1.06248e-005 4.65854e-005 -8.185e-006
47
root  -6.81509 39.7559 -10.8142 172.603 -61.7715 -173.843
RightUpLeg  -9.13062 -17.9947 1.91369
RightLeg  21.2241 -5.05265 1.14014
RightFoot  -9.89131 -0.0400349 -2.11699
RightToes  0.000482159 0.542163 -0.142577
Spine  15.4071 -2.89285 7.77698
Spine1  12.9697 -2.95765 4.01802
HEad  8.65266 13.3024 -11.3134
LeftShoulder1  6.14866 -9.97308 -39.3955
LeftArm  2.09635 0.0238891 -36.6673
LeftForeArm  25.6638 -28.794 -4.82931
LeftHand  -0.25398 0.0180481 5.50724
RightShoulder  4.24838 8.14004 30.531
RightArm  -11.4007 -1.91358 34.708
RightForeArm  1.13628 34.1002 7.5524
RightHand  -1.60759 4.32626 -19.39
LeftUpLeg  -17.4526 12.004 6.51947
LeftLeg  51.6487 6.55805 9.27533
LeftFoot  -2.66844 0.321285 -4.0462
LeftToes  1.06248e-005 4.65854e-005 -8.185e-006
48
root  -7.73907 39.9159 -11.6292 173.797 -61.6052 -175.302
RightUpLeg  -5.93711 -15.646 0.637641
RightLeg  19.5295 -6.96799 1.73385
RightFoot  -11.2702 -0.0746612 -1.59053
RightToes  0.000482159 0.542163 -0.142577
Spine  15.0634 -2.21212 7.808
Spine1  13.3058 -2.02731 2.87353
HEad  8.99135 12.6807 -11.1938
LeftShoulder1  6.229 -10.0599 -39.6811
LeftArm  0.944576 1.97381 -34.795
LeftForeArm  24.0618 -26.9415 -4.5014
LeftHand  -0.25398 0.0180481 5.50724
RightShoulder  4.22172 8.06743 30.5296
RightArm  -11.8352 0.348016 34.3622
RightForeArm  0.618747 34.6552 7.73713
RightHand  -1.76244 4.87826 -20.0991
LeftUpLeg  -19.8844 13.0698 3.70229
LeftLeg  45.1023 6.16175 7.00168
LeftFoot  -3.51531 0.335979 -4.59767
LeftToes  1.06248e-005 4.65854e-005 -8.185e-006
